<svg width="512" height="512" viewBox="0 0 512 512" fill="none" xmlns="http://www.w3.org/2000/svg">
<path d="M366.664 7.50836C358.082 7.68093 346.64 11.4906 337.576 16.3293C327.913 21.4903 314.761 38.2303 312.356 38.2238C309.952 38.214 301.692 26.9477 292.4 24.0106C283.109 21.0768 264.962 28.2957 264.962 28.2957C264.962 28.2957 250.433 37.9633 248.445 38.3475C246.462 38.7317 233.366 45.6674 233.366 45.6674C233.366 45.6674 203.596 70.4631 200.66 71.2999C197.729 72.1335 192.165 61.5412 187.917 59.8773C183.666 58.2134 145.256 50.4767 135.809 51.7857C126.366 53.0979 115.713 66.357 113.638 66.3017C111.56 66.2463 96.0562 50.5483 93.9551 50.3595C92.2599 50.2032 44.8047 61.0071 41.2966 64.6345C37.7962 68.2619 26.7639 98.5507 28.4439 106.362C30.1278 114.174 71.716 117.108 71.2306 128.651C71.0713 132.47 38.4485 135.13 36.5864 136.537C34.7205 137.944 9.97836 173.387 9.97836 173.387C9.97836 173.387 6.92921 211.452 8.31726 213.125C9.7053 214.802 35.2742 220.934 39.0818 220.979C42.8895 221.025 64.9465 207.268 70.9538 213.125C72.8803 215.004 65.303 238.523 51.468 245.876C37.6331 253.228 36.8405 281.375 38.2475 284.992C39.6545 288.607 57.6498 306.408 57.6498 306.408C57.6498 306.408 88.2474 305.366 91.7441 302.602C95.2332 299.837 99.8676 277.542 101.995 275.237C104.119 272.928 117.248 268.91 118.625 267.858C120.002 266.81 128.421 255.846 131.929 256.911C135.437 257.979 130.344 276.95 133.871 298.316C137.398 319.687 146.773 330.406 144.342 337.309C142.07 343.772 121.523 334.659 119.672 345.918C117.821 357.181 132.76 363.997 132.76 363.997L133.594 374.706L145.233 378.513L144.679 385.416L152.716 390.411L151.331 398.74L178.216 410.638L212.03 414.448C212.03 414.448 179.862 432.943 164.912 447.286C149.962 461.626 124.636 502.664 124.636 502.664L457.725 502.618C457.725 502.618 445.817 485.927 443.636 482.521C441.46 479.112 421.545 441.558 404.377 426.886C387.212 412.214 367.358 393.781 367.514 391.124C367.673 388.467 389.829 382.908 396.617 375.895C403.406 368.881 406.819 356.449 405.678 354C404.532 351.552 395.567 355.544 395.222 354.918C394.88 354.296 424.799 283.084 429.877 259.291C434.959 235.502 427.109 208.127 427.109 208.127C427.109 208.127 456.512 212.77 467.571 208.606C478.63 204.438 487.925 190.414 488.911 188.141C489.897 185.865 487.804 159.347 487.804 159.347C487.804 159.347 468.925 150.851 469.372 148.992C469.82 147.136 495.286 136.501 495.286 136.501C495.286 136.501 504.009 110.95 502.769 106.994C501.532 103.038 470.897 84.1487 470.897 84.1487L428.212 81.5308L421.841 75.1063C421.841 75.1063 418.716 57.6272 413.649 54.0259C409.808 51.294 397.524 40.9101 396.617 40.0049C394.604 37.9958 392.396 20.1748 386.639 14.4244C380.882 8.67405 377.071 7.86978 368.348 7.52137C367.789 7.49981 367.228 7.49437 366.668 7.50509L366.664 7.50836Z" fill="black"/>
</svg>
